<!-- icon666.com - MILLIONS OF FREE VECTOR ICONS --><svg id="Layer_1" enable-background="new 0 0 128 128" viewBox="0 0 128 128" xmlns="http://www.w3.org/2000/svg"><g clip-rule="evenodd" fill-rule="evenodd"><g><path d="m101.523 30.206v10.231c0 18.719-14.547 34.208-32.865 35.751v45.926h-6.002v-45.926c-18.346-1.543-32.863-17.032-32.863-35.751v-10.231z" fill="#f4f3f3"></path><g><path d="m91.863 39.837h-52.439v.601c0 14.403 11.83 26.234 26.234 26.234 14.402 0 26.205-11.831 26.205-26.234z" fill="#7cbc3a"></path><g fill="#56a902"><path d="m52.627 48.725c1.857 0 3.371 1.544 3.371 3.401 0 1.886-1.514 3.4-3.371 3.4-1.887 0-3.402-1.515-3.402-3.4 0-1.857 1.515-3.401 3.402-3.401z"></path><path d="m62.486 41.523c2.086 0 3.801 1.714 3.801 3.829 0 2.086-1.715 3.801-3.801 3.801-2.115 0-3.801-1.715-3.801-3.801.001-2.115 1.686-3.829 3.801-3.829z"></path><path d="m69.344 52.812c2.373 0 4.287 1.915 4.287 4.287s-1.914 4.286-4.287 4.286c-2.371 0-4.287-1.914-4.287-4.286s1.916-4.287 4.287-4.287z"></path></g></g></g><g><g><path d="m29.793 5.886c13.432 0 24.291 10.889 24.291 24.32 0 13.403-10.859 24.292-24.291 24.292s-24.32-10.889-24.32-24.292c0-13.432 10.888-24.32 24.32-24.32z" fill="#69b31e"></path><path d="m38.279 52.983c-2.656.972-5.516 1.515-8.486 1.515-13.432 0-24.32-10.889-24.32-24.292 0-1.486.143-2.943.4-4.344 1.771-.372 3.602-.572 5.486-.572 14.861 0 26.92 12.061 26.92 26.921z" fill="#7cbc3a"></path><path d="m29.793 5.886c13.432 0 24.291 10.889 24.291 24.32 0 6.487-2.543 12.403-6.717 16.775.287-1.601.457-3.258.457-4.944 0-14.86-12.059-26.921-26.92-26.921-4.371 0-8.486 1.029-12.145 2.887 4.202-7.231 12.059-12.117 21.034-12.117z" fill="#56a902"></path></g><g><path d="m29.793 9.744c11.287 0 20.434 9.145 20.434 20.462 0 11.288-9.146 20.434-20.434 20.434-11.289 0-20.463-9.146-20.463-20.434 0-11.317 9.174-20.462 20.463-20.462z" fill="#face42"></path><path d="m38.08 48.896c-2.543 1.114-5.344 1.743-8.287 1.743-11.289 0-20.463-9.146-20.463-20.434 0-1.687.201-3.315.602-4.858.457-.028.943-.058 1.428-.058 13.745.001 25.091 10.318 26.72 23.607z" fill="#fcdc78"></path><path d="m29.793 9.744c11.287 0 20.434 9.145 20.434 20.462 0 3.544-.887 6.888-2.486 9.773-1.029-13.889-12.66-24.863-26.836-24.863-1.885 0-3.742.2-5.516.572 3.687-3.686 8.773-5.944 14.404-5.944z" fill="#f9c00c"></path></g><g><path d="m33.965 14.459c2.801.743 5.316 2.201 7.287 4.201.514.486.715 1.114.629 1.801-.086.714-.457 1.257-1.057 1.629l-6.287 3.658c-.715.399-1.486.399-2.201 0-.686-.4-1.086-1.086-1.086-1.887l-.029-7.287c0-.715.287-1.314.857-1.743.543-.429 1.201-.543 1.887-.372zm-8.945 11.231-6.258-3.572c-.629-.371-1-.914-1.086-1.629-.086-.686.113-1.314.629-1.829 1.971-1.972 4.43-3.43 7.201-4.172.686-.2 1.344-.058 1.914.371.543.429.857 1.029.857 1.715v7.23c.029.8-.371 1.485-1.057 1.886-.714.401-1.486.401-2.2 0zm20.49.258c.371 1.371.543 2.771.543 4.258 0 1.457-.172 2.887-.543 4.229-.172.686-.629 1.172-1.285 1.458-.629.257-1.314.229-1.916-.144l-6.344-3.629c-.715-.4-1.113-1.086-1.113-1.887 0-.8.398-1.486 1.086-1.886l6.371-3.716c.602-.343 1.287-.399 1.916-.114.656.259 1.113.773 1.285 1.431zm-4.258 15.804c-2 1.972-4.516 3.458-7.344 4.201-.686.171-1.344.028-1.887-.4s-.857-1.029-.857-1.715v-7.287c-.029-.801.371-1.486 1.057-1.887.715-.429 1.486-.429 2.201-.028l6.373 3.658c.629.371 1 .914 1.086 1.629.086.685-.115 1.314-.629 1.829zm-15.803 4.144c-2.773-.771-5.258-2.258-7.23-4.258-.486-.486-.686-1.115-.6-1.801.086-.715.457-1.258 1.057-1.601l6.23-3.629c.715-.429 1.486-.429 2.199-.029.688.4 1.086 1.086 1.086 1.887l.029 7.316c0 .714-.285 1.314-.857 1.743s-1.228.543-1.914.372zm-11.402-11.603c-.344-1.314-.543-2.687-.543-4.087 0-1.458.199-2.887.57-4.229.172-.657.602-1.172 1.258-1.458.658-.257 1.314-.2 1.914.144l6.23 3.572c.715.399 1.115 1.086 1.115 1.886 0 .801-.4 1.486-1.086 1.887l-6.26 3.629c-.6.343-1.285.4-1.943.143-.656-.287-1.085-.801-1.255-1.487z" fill="#fdeaae"></path><path d="m33.965 14.459c2.801.743 5.316 2.201 7.287 4.201.514.486.715 1.114.629 1.801-.086.714-.457 1.257-1.057 1.629l-1.145.657c-2.428-2.344-5.287-4.258-8.459-5.573v-.6c0-.715.287-1.314.857-1.743.544-.429 1.202-.543 1.888-.372zm11.974 17.69c-1.029-2.601-2.459-5.03-4.201-7.173l.57-.344c.602-.343 1.287-.399 1.916-.114.656.258 1.113.771 1.285 1.43.371 1.371.543 2.771.543 4.258.001.657-.027 1.315-.113 1.943zm-17.718-16.032c-1.572-.429-3.172-.743-4.83-.887.686-.285 1.4-.543 2.115-.742.686-.2 1.344-.058 1.914.371.43.315.687.772.801 1.258z" fill="#fce393"></path><path d="m14.275 25.462c3.086.314 6 1.172 8.688 2.458l.514.314c.715.399 1.115 1.086 1.115 1.886 0 .801-.4 1.486-1.086 1.887l-6.26 3.629c-.6.343-1.285.4-1.943.143-.656-.285-1.086-.8-1.256-1.485-.344-1.314-.543-2.687-.543-4.087 0-1.458.199-2.887.57-4.229.03-.173.115-.374.201-.516zm17.661 9.402c2.4 2.829 4.201 6.173 5.287 9.831-1.057.515-2.172.943-3.314 1.258-.686.171-1.344.028-1.887-.4s-.857-1.029-.857-1.715v-7.287c-.03-.687.257-1.286.771-1.687zm-6.487 11.032c-2.773-.771-5.258-2.258-7.23-4.258-.486-.486-.686-1.115-.6-1.801.086-.715.457-1.258 1.057-1.601l6.23-3.629c.715-.429 1.486-.429 2.199-.029.688.4 1.086 1.086 1.086 1.887l.029 7.316c0 .714-.285 1.314-.857 1.743s-1.228.543-1.914.372z" fill="#fef1c9"></path></g></g></g><path d="m111.67 6.371-21.834 21.835h-33.836c-1.024-13.582-12.383-24.32-26.207-24.32-14.513 0-26.32 11.807-26.32 26.32 0 14.498 11.808 26.292 26.32 26.292.53 0 1.057-.021 1.579-.052 5.515 11.746 16.501 19.831 29.284 21.536v42.132h-10.717v4h31.436v-4h-16.719v-45.763l-1.832-.155c-11.713-.99-21.956-7.938-27.299-18.335 11.118-2.483 19.595-12.022 20.475-23.655h29.836l-17.563 17.563 2.828 2.828 20.391-20.391h8.031v8.231c0 17.464-13.632 32.292-31.033 33.758l-1.832.155v43.192h4v-39.561c18.572-2.49 32.865-18.635 32.865-37.544v-12.231h-8.032l16.175-16.175 9.445 9.47 2.832-2.825zm-81.877 46.127c-12.308 0-22.32-10-22.32-22.292 0-12.308 10.013-22.32 22.32-22.32 12.291 0 22.291 10.013 22.291 22.32 0 12.292-10 22.292-22.291 22.292z" fill="#221f20"></path></svg>